<svg xmlns="http://www.w3.org/2000/svg" viewBox="0 0 32 32">
  <rect width="32" height="32" rx="7" fill="#0c0a09"/>
  <path d="M16 5 C 13.5 9.5, 11 12, 11 16.5 C 11 21.5, 13.5 23.5, 16 23.5 C 18.5 23.5, 21 21.5, 21 16.5 C 21 13.5, 19.5 11.5, 18 9 C 17.5 11, 17 12, 16 12 C 16 9.5, 16.5 7.5, 16 5 Z" fill="#dc2626"/>
  <path d="M16 13 C 15 15, 14 16, 14 18 C 14 20.5, 15 21.5, 16 21.5 C 17 21.5, 18 20.5, 18 18 C 18 16.5, 17.5 15.5, 17 14 C 16.7 14.8, 16.5 15.2, 16 15.2 C 16 14.3, 16.2 13.7, 16 13 Z" fill="#fbbf24"/>
</svg>
